<?xml version="1.0" encoding="UTF-8"?><svg xmlns="http://www.w3.org/2000/svg" viewBox="0 0 265.52 136.94"><defs><style>.d{fill-rule:evenodd;stroke:#fff;stroke-miterlimit:10;fill:#000;}</style></defs><g id="a"/><g id="b"><g id="c"><path class="d" d="M143.76,43.9s8.03-13.13,19.71-8.86c4.42,1.62,7.81,5.29,9.32,9.75,3.09,9.12,.68,29.1-40.03,43.12-40.71-14.02-43.12-33.99-40.03-43.12,1.51-4.46,4.9-8.13,9.32-9.75,11.69-4.27,19.71,8.86,19.71,8.86C121.1-9.09,54.33,.87,.76,1.9c3.12,7.04,25.51,8.13,33,10,24,6,45.03,36,45,73,31.76,7.86,51.23,16.07,54,52,2.77-35.93,22.24-44.14,54-52-.03-37,21-67,45-73,7.49-1.87,29.88-2.96,33-10-53.57-1.03-120.34-10.99-121,42Z"/></g></g></svg>