<?xml version="1.0" encoding="UTF-8"?><svg id="Layer_2" xmlns="http://www.w3.org/2000/svg" xmlns:xlink="http://www.w3.org/1999/xlink" viewBox="0 0 592.28 738.18"><defs><style>.cls-1{fill:url(#linear-gradient-2);}.cls-1,.cls-2{isolation:isolate;opacity:.9;}.cls-3{opacity:.91;}.cls-4{clip-path:url(#clippath-1);}.cls-2{fill:#0e1717;}.cls-5{clip-path:url(#clippath);}.cls-6{fill:none;}.cls-7{fill:url(#linear-gradient);}</style><clipPath id="clippath"><path class="cls-6" d="M82.04,537.29l86.72-26.51c30.82-9.43,63.44,7.91,72.87,38.72v.03l26.53,86.72c9.42,30.83-7.93,63.46-38.76,72.88l-86.69,26.49c-30.83,9.42-63.46-7.93-72.88-38.76l-26.51-86.72c-9.41-30.81,7.92-63.41,38.72-72.85Z"/></clipPath><linearGradient id="linear-gradient" x1="0" y1="312.93" x2="592.28" y2="312.93" gradientTransform="matrix(1, 0, 0, 1, 0, 0)" gradientUnits="userSpaceOnUse"><stop offset="0" stop-color="#6f1e77"/><stop offset=".18" stop-color="#6a207b"/><stop offset=".4" stop-color="#5b2987"/><stop offset=".63" stop-color="#44389c"/><stop offset=".87" stop-color="#234cb9"/><stop offset="1" stop-color="#0e59cc"/></linearGradient><clipPath id="clippath-1"><path class="cls-7" d="M170.33,12.23l356.24,176.17c58.41,28.89,82.35,99.67,53.45,158.08-8.16,16.49-20.05,30.84-34.74,41.92l-283.57,213.71c-52.05,39.21-126.04,28.8-165.25-23.25-10.97-14.56-18.41-31.46-21.75-49.38L2.02,139.62C-9.92,75.55,32.34,13.94,96.4,2c25.1-4.68,51.04-1.09,73.92,10.23Z"/></clipPath><linearGradient id="linear-gradient-2" x1="-202.29" y1="259.2" x2="653.54" y2="259.2" gradientTransform="translate(201.42 -83.59) rotate(37)" xlink:href="#linear-gradient"/></defs><g id="Layer_1-2"><g id="Layer_2-2"><g id="Layer_1-2"><g class="cls-5"><rect class="cls-2" x="30.72" y="498.18" width="250" height="250"/></g><g class="cls-3"><path class="cls-7" d="M170.33,12.23l356.24,176.17c58.41,28.89,82.35,99.67,53.45,158.08-8.16,16.49-20.05,30.84-34.74,41.92l-283.57,213.71c-52.05,39.21-126.04,28.8-165.25-23.25-10.97-14.56-18.41-31.46-21.75-49.38L2.02,139.62C-9.92,75.55,32.34,13.94,96.4,2c25.1-4.68,51.04-1.09,73.92,10.23Z"/><g class="cls-4"><rect class="cls-1" x="-79.93" y="-46.36" width="611.11" height="611.11" transform="translate(-110.56 187.98) rotate(-37)"/></g></g></g></g></g></svg>